<?xml version="1.0" encoding="utf-8"?><!-- Generator: Adobe Illustrator 24.0.3, SVG Export Plug-In . SVG Version: 6.00 Build 0)  -->
<svg version="1.1" id="Livello_1" xmlns="http://www.w3.org/2000/svg"
    xmlns:xlink="http://www.w3.org/1999/xlink" x="0px" y="0px" viewBox="0 0 5669.3 856.4"
    style="enable-background:new 0 0 5669.3 856.4;" xml:space="preserve">
<style type="text/css">
	.st0{fill:#575756;}
	.st1{fill:#95C11F;}
    .st2{fill:#FFFFFF;}
</style>
    <g>
	<path class="st2"
        d="M150.1,761V43.9h106.2L510,667.4L762.7,43.9h106.2V761H800V127.6L542.2,761h-64.9L219.6,127.6V761H150.1z" />
        <path class="st2" d="M972.6,230h67.6v280.2c0,72,11.8,122.9,35.5,152.8c23.6,29.9,62.5,44.8,116.7,44.8c30.8,0,57.8-6.1,81.2-18.5
		c23.3-12.3,42.1-30.1,56.4-53.5c8.1-13.8,13.9-30,17.5-48.7s5.4-51.2,5.4-97.7V230h68.5v527.8h-68.5v-57.1
		c-20.7,25-43.9,43-69.5,54.2s-56.5,16.8-92.8,16.8c-77.1,0-132.7-20.6-166.7-61.7c-34-41.1-51-109.3-51-204.7V230H972.6z" />
        <path class="st2" d="M1512.1,761V43.9h69.5V761H1512.1z" />
        <path class="st2"
            d="M1731.1,761V289.2h-103.7v-56.8h103.7V43.9h69.9v188.5h119v56.8h-119V761H1731.1z" />
        <path class="st2"
            d="M2034.2,155.7h-69.4V43.9h69.4V155.7z M1964.7,761V219.2h69.4V761H1964.7z" />
        <path class="st2" d="M2315.5,435.4v65.5H2177v-65.5H2315.5z" />
        <path class="st0"
            d="M2609.9,120.9h-163.8v-77h-130.6v773.8h294.4V120.9z M2315.6,500.9v-65.5h138.5v65.5H2315.6z" />
        <path class="st0" d="M3200.1,365c-34.5-29.9-79.6-44.9-135.1-44.9c-51.7,0-95.3,16.1-131.2,48.3c-35.8,32.2-57.7,75.6-65.8,130.4
		l403.3-0.1C3258.4,439.5,3234.7,394.9,3200.1,365z" />
        <path class="st0" d="M4108.2,43.9v264c21-26.3,46.1-46,75.5-59.3s62.3-20,98.7-20c79.7,0,137.7,23.2,174.1,69.6
		c36.4,46.4,54.6,121.7,54.6,226v293.5h-71.6V523.2c0-83.7-12.4-141.8-37.1-174.6c-24.7-32.7-66.1-49.1-124.2-49.1
		c-33,0-61.9,6.8-86.8,20.2c-24.9,13.5-44.6,32.8-59,58c-9,15.7-15.2,33.7-18.8,53.8c-3.6,20.2-5.4,55.2-5.4,105.3v280.9h-71.6
		l0-773.8H2844.1v77h-163.8v696.8h997.8c-71.5-3.5-132.4-30.8-182.7-81.7c-54-54.8-81-120.7-81-197.9c0-78.8,27.4-145.5,82-200.3
		c54.7-54.7,121.2-82.1,199.7-82.1c58.8,0,110.6,15.6,155.4,46.7c44.8,31.2,78.4,75,100.7,131.5h-76.9l0-0.1
		c-21.4-38.8-47.4-67.4-78-86c-30.7-18.6-67.2-27.8-109.6-27.8c-55.8,0-103.2,20.8-142.1,62.5c-38.9,41.6-58.3,93.2-58.3,154.5
		c0,61.4,19.5,112.6,58.6,153.8s87.3,61.8,144.8,61.8c42,0,79.1-10.2,111.3-30.5s56.6-48.9,73.4-85.7h76.8
		c-21,57.8-54,102.5-99,134.2c-40.9,28.8-88.4,44.5-142.5,47.1h895.7l617-773.8H4108.2z M3347.2,558.2l-0.3,0h-480.7
		c4.2,57.9,25.2,104.8,63,140.5c37.7,35.7,84.9,53.6,141.3,53.6c40,0,76-10.4,108-31.1c31.9-20.8,56.7-49.6,74.1-86.6h77.5
		c-24.5,58.9-59,104.1-103.3,135.7c-44.4,31.6-95.8,47.3-154.2,47.3c-77.5,0-143-27.6-196.5-82.8c-53.6-55.2-80.4-121.5-80.4-199
		c0-81,26.2-148,78.7-200.9c52.4-52.9,119.5-79.4,201.2-79.4c80,0,145.3,27.6,195.8,82.6c50.5,55.1,75.8,126.8,75.8,215V558.2z" />
        <polygon class="st1" points="4983.2,643 4845.1,817.7 5500.3,817.7 5500.3,643 	" />
        <polygon class="st1" points="5151.4,430.4 5010.6,608.4 5500.3,608.4 5500.3,430.4 	" />
        <polygon class="st1" points="5500.3,181.3 5500.3,37.5 5462,37.5 5348.4,181.3 	" />
        <polygon class="st1" points="5321,215.9 5178.8,395.7 5500.3,395.7 5500.3,215.9 	" />
</g>
</svg>
